<svg width="14" height="24" viewBox="0 0 14 24" fill="none" xmlns="http://www.w3.org/2000/svg">
<path d="M2.66557 12.0384C3.79086 13.0134 5.21017 13.5836 6.69723 13.6582C8.1843 13.7328 9.65354 13.3074 10.8707 12.4499C12.0879 11.5924 12.983 10.352 13.4133 8.92664C13.8437 7.50124 13.7844 5.97281 13.2451 4.585C12.7057 3.19718 11.7173 2.02986 10.4374 1.26912C9.15745 0.508373 7.6597 0.197994 6.18286 0.387453C4.70603 0.576913 3.33512 1.25531 2.28868 2.3145C1.24223 3.37369 0.580479 4.7527 0.408906 6.23172C-0.184427 9.24839 -0.177761 12.8434 1.18224 16.0651C2.61891 19.4651 5.51724 22.3317 10.4656 23.6267C10.6249 23.6701 10.7913 23.6814 10.955 23.6601C11.1188 23.6387 11.2767 23.5852 11.4197 23.5025C11.5626 23.4198 11.6877 23.3095 11.7878 23.1782C11.8879 23.0468 11.961 22.897 12.0028 22.7372C12.0447 22.5775 12.0544 22.411 12.0316 22.2474C12.0087 22.0839 11.9537 21.9265 11.8696 21.7843C11.7856 21.6422 11.6742 21.5181 11.5419 21.4192C11.4096 21.3204 11.259 21.2487 11.0989 21.2084C6.88057 20.1034 4.61224 17.7584 3.48557 15.0917C3.07922 14.1144 2.80351 13.0878 2.66557 12.0384Z" fill="url(#paint0_linear_1_532)"/>
<defs>
<linearGradient id="paint0_linear_1_532" x1="0.0330753" y1="0.333252" x2="20.385" y2="12.25" gradientUnits="userSpaceOnUse">
<stop stop-color="#F76680"/>
<stop offset="1" stop-color="#57007B"/>
</linearGradient>
</defs>
</svg>
