<svg width="30" height="23" viewBox="0 0 30 23" fill="none" xmlns="http://www.w3.org/2000/svg">
<path d="M9.27093 20.6608C6.72033 23.1839 2.40058 23.1738 1.19419 19.8111C0.957996 19.1527 0.76915 18.4758 0.630255 17.7851C0.0631474 14.9647 0.354208 12.0415 1.46663 9.38477C2.57905 6.72816 4.46287 4.45749 6.87986 2.85992C9.2969 1.26236 12.1385 0.409668 15.0454 0.409668C17.9523 0.409668 20.7939 1.26236 23.2109 2.85992C25.6279 4.45749 27.5117 6.72816 28.6241 9.38485C29.7366 12.0415 30.0276 14.9647 29.4605 17.7851C29.3216 18.4758 29.1328 19.1527 28.8965 19.8111C27.6901 23.1738 23.3704 23.1839 20.8198 20.6608L16.8826 16.766C16.5064 16.3939 16.5453 15.7802 16.6491 15.2642C16.7121 14.9504 16.6797 14.6252 16.556 14.3297C16.4322 14.0341 16.2227 13.7815 15.9538 13.6038C15.6849 13.4261 15.3688 13.3312 15.0454 13.3312C14.722 13.3312 14.4059 13.4261 14.137 13.6038C13.8681 13.7815 13.6585 14.0341 13.5348 14.3297C13.411 14.6252 13.3786 14.9504 13.4418 15.2642C13.5455 15.7802 13.5843 16.3939 13.2082 16.766L9.27093 20.6608Z" fill="url(#paint0_linear_33_26)"/>
<defs>
<linearGradient id="paint0_linear_33_26" x1="28.4051" y1="7.67916" x2="2.31694" y2="7.67916" gradientUnits="userSpaceOnUse">
<stop stop-color="#161490"/>
<stop offset="0.510417" stop-color="#7476ED"/>
<stop offset="1" stop-color="#E56F8C"/>
</linearGradient>
</defs>
</svg>
