<svg width="15" height="24" viewBox="0 0 15 24" fill="none" xmlns="http://www.w3.org/2000/svg">
<path d="M11.3989 12.0383C10.2736 13.0133 8.8543 13.5835 7.36724 13.6581C5.88017 13.7327 4.41093 13.3073 3.19373 12.4498C1.97654 11.5922 1.08144 10.3519 0.651125 8.92652C0.220812 7.50112 0.280054 5.97269 0.819406 4.58488C1.35876 3.19706 2.34717 2.02974 3.6271 1.269C4.90702 0.508251 6.40477 0.197872 7.88161 0.387331C9.35844 0.576791 10.7293 1.25518 11.7758 2.31437C12.8222 3.37356 13.484 4.75258 13.6556 6.2316C14.2489 9.24826 14.2422 12.8433 12.8822 16.0649C11.4456 19.4649 8.54723 22.3316 3.5989 23.6266C3.43954 23.6699 3.27318 23.6813 3.10942 23.6599C2.94566 23.6386 2.78776 23.585 2.64482 23.5023C2.50188 23.4196 2.37675 23.3094 2.27665 23.1781C2.17655 23.0467 2.10348 22.8968 2.06164 22.7371C2.0198 22.5773 2.01003 22.4109 2.0329 22.2473C2.05577 22.0838 2.11081 21.9264 2.19486 21.7842C2.27891 21.6421 2.3903 21.518 2.52258 21.4191C2.65486 21.3203 2.80542 21.2486 2.96556 21.2083C7.1839 20.1033 9.45223 17.7583 10.5789 15.0916C10.9853 14.1143 11.261 13.0877 11.3989 12.0383Z" fill="url(#paint0_linear_1_528)"/>
<defs>
<linearGradient id="paint0_linear_1_528" x1="14.0314" y1="0.33313" x2="-6.32049" y2="12.2498" gradientUnits="userSpaceOnUse">
<stop stop-color="#F76680"/>
<stop offset="1" stop-color="#57007B"/>
</linearGradient>
</defs>
</svg>
